<svg width="148" height="52" viewBox="0 0 148 52" fill="none" xmlns="http://www.w3.org/2000/svg">
<path d="M7.904 37.224C5.056 37.224 2.208 36.392 0.672 35.304L2.208 32.264C3.712 33.256 6.016 33.96 8.16 33.96C10.688 33.96 11.744 33.256 11.744 32.072C11.744 28.808 1.184 31.88 1.184 25.064C1.184 21.832 4.096 19.72 8.704 19.72C10.976 19.72 13.568 20.264 15.104 21.192L13.568 24.232C11.936 23.272 10.304 22.952 8.672 22.952C6.24 22.952 5.088 23.752 5.088 24.872C5.088 28.328 15.648 25.256 15.648 31.944C15.648 35.144 12.704 37.224 7.904 37.224ZM41.8843 19.912H45.4363L39.1323 37H35.2923L30.8763 25.224L26.3963 37H22.5563L16.2843 19.912H20.0603L24.5723 32.52L29.2763 19.912H32.6363L37.2443 32.584L41.8843 19.912ZM60.7305 19.912H64.7305V37H60.9225V34.824C59.6425 36.392 57.6265 37.224 55.4185 37.224C51.0345 37.224 48.0585 34.824 48.0585 29.672V19.912H52.0585V29.128C52.0585 32.232 53.5305 33.704 56.0585 33.704C58.8425 33.704 60.7305 31.976 60.7305 28.552V19.912ZM75.2478 37.224C72.3998 37.224 69.5518 36.392 68.0158 35.304L69.5518 32.264C71.0558 33.256 73.3598 33.96 75.5038 33.96C78.0318 33.96 79.0878 33.256 79.0878 32.072C79.0878 28.808 68.5278 31.88 68.5278 25.064C68.5278 21.832 71.4398 19.72 76.0478 19.72C78.3198 19.72 80.9118 20.264 82.4478 21.192L80.9118 24.232C79.2798 23.272 77.6478 22.952 76.0158 22.952C73.5838 22.952 72.4318 23.752 72.4318 24.872C72.4318 28.328 82.9918 25.256 82.9918 31.944C82.9918 35.144 80.0478 37.224 75.2478 37.224ZM96.1325 19.72C100.229 19.72 103.269 22.056 103.269 27.208V37H99.2685V27.72C99.2685 24.68 97.7645 23.208 95.2045 23.208C92.3565 23.208 90.4365 24.936 90.4365 28.36V37H86.4365V13.256H90.4365V21.896C91.7485 20.488 93.7645 19.72 96.1325 19.72Z" fill="white"/>
<rect x="111" y="21" width="37" height="16" rx="2" fill="#F9FF50"/>
<path d="M121.97 28.36C122.75 28.61 123.25 29.21 123.25 30.09C123.25 31.3 122.29 32 120.45 32H116.83V25H120.25C122 25 122.9 25.73 122.9 26.82C122.9 27.52 122.54 28.06 121.97 28.36ZM120.05 26.22H118.44V27.87H120.05C120.84 27.87 121.27 27.59 121.27 27.04C121.27 26.49 120.84 26.22 120.05 26.22ZM120.33 30.78C121.17 30.78 121.62 30.52 121.62 29.92C121.62 29.33 121.17 29.05 120.33 29.05H118.44V30.78H120.33ZM126.086 30.7H129.896V32H124.476V25H129.766V26.3H126.086V27.82H129.336V29.08H126.086V30.7ZM132.635 32V26.32H130.395V25H136.495V26.32H134.255V32H132.635ZM142.246 32L141.626 30.5H138.376L137.756 32H136.096L139.216 25H140.816L143.946 32H142.246ZM138.896 29.27H141.116L140.006 26.59L138.896 29.27Z" fill="#010A10"/>
</svg>
