<svg width="41" height="41" viewBox="0 0 41 41" fill="none" xmlns="http://www.w3.org/2000/svg">
<path d="M17.6562 29.8438L31.9766 15.5234L29.1328 12.6797L17.6562 24.1562L11.8672 18.3672L9.02344 21.2109L17.6562 29.8438ZM20.5 40.8125C17.6901 40.8125 15.0495 40.279 12.5781 39.2119C10.1068 38.1461 7.95703 36.6992 6.12891 34.8711C4.30078 33.043 2.85385 30.8932 1.78813 28.4219C0.721042 25.9505 0.1875 23.3099 0.1875 20.5C0.1875 17.6901 0.721042 15.0495 1.78813 12.5781C2.85385 10.1068 4.30078 7.95703 6.12891 6.12891C7.95703 4.30078 10.1068 2.85318 12.5781 1.78609C15.0495 0.720364 17.6901 0.1875 20.5 0.1875C23.3099 0.1875 25.9505 0.720364 28.4219 1.78609C30.8932 2.85318 33.043 4.30078 34.8711 6.12891C36.6992 7.95703 38.1461 10.1068 39.2119 12.5781C40.279 15.0495 40.8125 17.6901 40.8125 20.5C40.8125 23.3099 40.279 25.9505 39.2119 28.4219C38.1461 30.8932 36.6992 33.043 34.8711 34.8711C33.043 36.6992 30.8932 38.1461 28.4219 39.2119C25.9505 40.279 23.3099 40.8125 20.5 40.8125Z" fill="#00DF80"/>
</svg>
