<svg width="71" height="72" viewBox="0 0 71 72" fill="none" xmlns="http://www.w3.org/2000/svg">
<g filter="url(#filter0_d_506_102)">
<rect x="7.11621" y="26.0894" width="56.0956" height="37.397" fill="#FCFDFF"/>
</g>
<path fill-rule="evenodd" clip-rule="evenodd" d="M30.8789 63.4864V26.0894H37.8909V63.4864H30.8789Z" fill="#F2D663"/>
<g filter="url(#filter1_d_506_102)">
<rect x="4" y="13.6235" width="62.3284" height="12.4657" fill="#FCFDFF"/>
</g>
<path fill-rule="evenodd" clip-rule="evenodd" d="M31.6582 26.0892V13.6235H38.6701V26.0892H31.6582Z" fill="#F2D663"/>
<path fill-rule="evenodd" clip-rule="evenodd" d="M32.2026 10.7493C29.6461 11.1041 26.9919 10.629 25.2166 9.71948C24.157 9.17665 23.6089 8.58547 23.4148 8.11482C23.2592 7.73737 23.2197 7.17336 23.8828 6.35521C24.71 5.33452 25.4985 5.03292 26.1324 4.99992C26.8041 4.96497 27.6152 5.21573 28.5182 5.84815C30.0192 6.89933 31.4148 8.7658 32.2026 10.7493ZM25.7311 1.99993C24.0069 2.08966 22.4828 2.93351 21.261 4.44112C20.1059 5.86646 19.7751 7.46819 20.4147 9.01933C21.0158 10.4773 22.3493 11.5775 23.8174 12.3296C26.7564 13.8353 31.0305 14.3721 34.7709 13.3352L36.1015 12.9664L35.7865 11.6612C35.042 8.57555 32.9556 5.32442 30.3384 3.49154C29.0102 2.56137 27.4176 1.91215 25.7311 1.99993Z" fill="#F2D663"/>
<path fill-rule="evenodd" clip-rule="evenodd" d="M37.2344 10.7493C39.7909 11.1041 42.4451 10.629 44.2204 9.71948C45.28 9.17665 45.8281 8.58547 46.0222 8.11482C46.1778 7.73737 46.2173 7.17336 45.5542 6.35521C44.7271 5.33452 43.9386 5.03292 43.3046 4.99992C42.6329 4.96497 41.8218 5.21573 40.9188 5.84815C39.4178 6.89933 38.0222 8.7658 37.2344 10.7493ZM43.7059 1.99993C45.4301 2.08966 46.9542 2.93351 48.176 4.44112C49.3311 5.86646 49.6619 7.46819 49.0223 9.01933C48.4212 10.4773 47.0877 11.5775 45.6196 12.3296C42.6806 13.8353 38.4066 14.3721 34.6661 13.3352L33.3356 12.9664L33.6505 11.6612C34.395 8.57555 36.4814 5.32442 39.0986 3.49154C40.4268 2.56137 42.0194 1.91215 43.7059 1.99993Z" fill="#F2D663"/>
<path d="M37.4172 13.069C37.4172 14.24 36.0535 15.1893 34.3712 15.1893C32.6889 15.1893 31.3252 14.24 31.3252 13.069C31.3252 11.898 32.6889 10.9487 34.3712 10.9487C36.0535 10.9487 37.4172 11.898 37.4172 13.069Z" fill="#F2D663"/>
<defs>
<filter id="filter0_d_506_102" x="3.11621" y="26.0894" width="64.0957" height="45.397" filterUnits="userSpaceOnUse" color-interpolation-filters="sRGB">
<feFlood flood-opacity="0" result="BackgroundImageFix"/>
<feColorMatrix in="SourceAlpha" type="matrix" values="0 0 0 0 0 0 0 0 0 0 0 0 0 0 0 0 0 0 127 0" result="hardAlpha"/>
<feOffset dy="4"/>
<feGaussianBlur stdDeviation="2"/>
<feComposite in2="hardAlpha" operator="out"/>
<feColorMatrix type="matrix" values="0 0 0 0 0.78474 0 0 0 0 0.515412 0 0 0 0 0.189384 0 0 0 0.54 0"/>
<feBlend mode="normal" in2="BackgroundImageFix" result="effect1_dropShadow_506_102"/>
<feBlend mode="normal" in="SourceGraphic" in2="effect1_dropShadow_506_102" result="shape"/>
</filter>
<filter id="filter1_d_506_102" x="0" y="13.6235" width="70.3286" height="20.4658" filterUnits="userSpaceOnUse" color-interpolation-filters="sRGB">
<feFlood flood-opacity="0" result="BackgroundImageFix"/>
<feColorMatrix in="SourceAlpha" type="matrix" values="0 0 0 0 0 0 0 0 0 0 0 0 0 0 0 0 0 0 127 0" result="hardAlpha"/>
<feOffset dy="4"/>
<feGaussianBlur stdDeviation="2"/>
<feComposite in2="hardAlpha" operator="out"/>
<feColorMatrix type="matrix" values="0 0 0 0 0.78474 0 0 0 0 0.515412 0 0 0 0 0.189384 0 0 0 0.54 0"/>
<feBlend mode="normal" in2="BackgroundImageFix" result="effect1_dropShadow_506_102"/>
<feBlend mode="normal" in="SourceGraphic" in2="effect1_dropShadow_506_102" result="shape"/>
</filter>
</defs>
</svg>
